<?xml version="1.0" encoding="iso-8859-1"?>
<!-- Uploaded to: SVG Repo, www.svgrepo.com, Generator: SVG Repo Mixer Tools -->
<svg version="1.1" id="Layer_1" xmlns="http://www.w3.org/2000/svg" xmlns:xlink="http://www.w3.org/1999/xlink" 
	 viewBox="0 0 512 512" xml:space="preserve">
<path style="fill:#FFFFFF;" d="M153.408,510c-20.752-0.04-37.56-16.848-37.6-37.6V39.632c0.04-20.752,16.848-37.56,37.6-37.6
	h205.184c20.744,0.048,37.552,16.856,37.6,37.6v432.736c-0.048,20.76-16.88,37.576-37.64,37.6L153.408,510z"/>
<g>
	<path style="fill:#AAC1CE;" d="M358.592,4c19.672,0.024,35.608,15.96,35.632,35.632v432.736
		c-0.032,19.672-15.976,35.608-35.648,35.632h-205.16c-19.672-0.024-35.608-15.96-35.632-35.632V39.632
		C117.808,19.96,133.744,4.024,153.416,4H358.592 M358.592,0H153.416c-21.864,0.064-39.568,17.768-39.632,39.632v432.736
		c0.064,21.864,17.768,39.568,39.632,39.632h205.16c21.864-0.064,39.568-17.768,39.64-39.632V39.632
		C398.152,17.776,380.448,0.064,358.592,0z"/>
	<path style="fill:#AAC1CE;" d="M375.456,44.4v395.72h-238.92V44.4H375.456 M379.456,40.4h-246.92v403.72h246.92V40.4z"/>
	<path style="fill:#AAC1CE;" d="M293.032,26.328h-50.528c-2.28-0.008-4.12-1.848-4.128-4.128l0,0c0.008-2.28,1.848-4.12,4.128-4.128
		h50.528c2.28,0.008,4.12,1.848,4.128,4.128l0,0C297.152,24.48,295.312,26.32,293.032,26.328z"/>
	<circle style="fill:#AAC1CE;" cx="218.968" cy="22.2" r="4.128"/>
	<path style="fill:#AAC1CE;" d="M256,495.704c-10.784,0-19.52-8.736-19.52-19.52s8.736-19.52,19.52-19.52
		c10.784,0,19.52,8.736,19.52,19.52l0,0C275.504,486.96,266.776,495.688,256,495.704z M256,460.656
		c-8.568,0-15.52,6.952-15.52,15.52s6.952,15.52,15.52,15.52s15.52-6.952,15.52-15.52l0,0
		C271.512,467.608,264.568,460.664,256,460.656z"/>
</g>
<rect x="155.256" y="206.312" style="fill:#E04F5F;" width="78.576" height="78.576"/>
<path style="fill:#F9B53D;" d="M225.832,332.224V394.8h-62.576v-62.576H225.832 M233.832,324.224h-78.576V402.8h78.576V324.224z"/>
<rect id="SVGCleanerId_0" x="255.704" y="223.632" style="fill:#C7D5DD;" width="101.04" height="8"/>
<rect id="SVGCleanerId_1" x="255.704" y="253.8" style="fill:#C7D5DD;" width="64.24" height="8"/>
<g>
	<rect id="SVGCleanerId_0_1_" x="255.704" y="223.632" style="fill:#C7D5DD;" width="101.04" height="8"/>
</g>
<g>
	<rect id="SVGCleanerId_1_1_" x="255.704" y="253.8" style="fill:#C7D5DD;" width="64.24" height="8"/>
</g>
<g>
	<rect x="255.704" y="341.552" style="fill:#C7D5DD;" width="101.04" height="8"/>
	<rect x="255.704" y="371.68" style="fill:#C7D5DD;" width="64.24" height="8"/>
	<rect x="255.704" y="105.728" style="fill:#C7D5DD;" width="101.04" height="8"/>
	<rect x="255.704" y="135.888" style="fill:#C7D5DD;" width="64.24" height="8"/>
</g>
<path style="fill:#25B6D2;" d="M225.832,96.4v62.576h-62.576V96.4H225.832 M233.832,88.4h-78.576v78.576h78.576V88.4z"/>
</svg>