<svg xmlns="http://www.w3.org/2000/svg" xmlns:xlink="http://www.w3.org/1999/xlink" version="1.1" width="256" height="256" viewBox="0 0 256 256" xml:space="preserve">

<defs>
</defs>
<g style="stroke: none; stroke-width: 0; stroke-dasharray: none; stroke-linecap: butt; stroke-linejoin: miter; stroke-miterlimit: 10; fill: none; fill-rule: nonzero; opacity: 1;" transform="translate(1.4065934065934016 1.4065934065934016) scale(2.81 2.81)" >
	<path d="M 53.485 61.861 c -0.373 -0.902 -1.075 -1.603 -1.976 -1.976 c -1.789 -0.741 -1.928 -2.396 -1.928 -2.886 c 0 -0.489 0.139 -2.144 1.929 -2.886 c 1.86 -0.771 2.746 -2.912 1.975 -4.77 l -2.378 -5.741 c -0.373 -0.901 -1.075 -1.603 -1.976 -1.976 c -0.9 -0.373 -1.893 -0.373 -2.795 0 c -1.788 0.74 -3.057 -0.331 -3.404 -0.677 c -0.346 -0.346 -1.418 -1.615 -0.677 -3.403 c 0.771 -1.859 -0.116 -4 -1.976 -4.771 l -5.741 -2.378 c -0.45 -0.186 -0.923 -0.279 -1.397 -0.279 c -0.473 0 -0.947 0.093 -1.397 0.28 c -0.901 0.373 -1.603 1.075 -1.976 1.976 c -0.741 1.789 -2.396 1.928 -2.886 1.928 c 0 0 0 0 0 0 c -0.489 0 -2.144 -0.139 -2.886 -1.929 c -0.771 -1.859 -2.912 -2.743 -4.77 -1.975 l -5.743 2.378 c -1.859 0.771 -2.745 2.911 -1.975 4.771 c 0.741 1.789 -0.331 3.057 -0.677 3.403 c -0.346 0.346 -1.612 1.419 -3.404 0.677 c -1.86 -0.768 -3.999 0.117 -4.771 1.977 l -2.378 5.741 c -0.769 1.859 0.117 4 1.975 4.77 l 0.002 0.001 c 1.789 0.741 1.927 2.396 1.927 2.885 c 0.001 0.49 -0.139 2.145 -1.927 2.886 c -0.901 0.373 -1.603 1.075 -1.976 1.976 c -0.373 0.901 -0.373 1.893 0 2.795 l 2.378 5.742 c 0.771 1.858 2.909 2.747 4.771 1.975 c 1.79 -0.742 3.057 0.331 3.403 0.677 c 0.347 0.346 1.418 1.615 0.677 3.404 c -0.373 0.901 -0.373 1.893 0.001 2.794 c 0.373 0.901 1.075 1.603 1.976 1.976 l 5.741 2.378 c 1.859 0.769 3.999 -0.117 4.771 -1.977 c 0.741 -1.788 2.396 -1.927 2.885 -1.927 c 0.49 0 2.145 0.139 2.886 1.927 c 0.373 0.901 1.075 1.603 1.976 1.977 c 0.901 0.374 1.893 0.373 2.795 0 l 5.74 -2.378 c 0.901 -0.373 1.603 -1.075 1.977 -1.976 c 0.374 -0.901 0.373 -1.894 0 -2.795 c -0.741 -1.789 0.331 -3.057 0.677 -3.403 c 0.346 -0.347 1.613 -1.419 3.403 -0.677 c 0.901 0.373 1.894 0.373 2.795 0 c 0.902 -0.373 1.603 -1.075 1.976 -1.976 l 2.378 -5.74 C 53.859 63.755 53.859 62.762 53.485 61.861 z M 26.883 67.94 c -6.033 0 -10.941 -4.908 -10.941 -10.941 c 0 -6.033 4.908 -10.941 10.941 -10.941 s 10.941 4.908 10.941 10.941 C 37.823 63.032 32.915 67.94 26.883 67.94 z" style="stroke: none; stroke-width: 1; stroke-dasharray: none; stroke-linecap: butt; stroke-linejoin: miter; stroke-miterlimit: 10; fill: rgb(0,0,0); fill-rule: nonzero; opacity: 1;" transform=" matrix(1 0 0 1 0 0) " stroke-linecap="round" />
	<path d="M 86.665 28.45 c -0.263 -0.634 -0.756 -1.128 -1.39 -1.39 c -1.258 -0.521 -1.356 -1.686 -1.356 -2.03 c 0 -0.344 0.098 -1.508 1.357 -2.03 c 1.308 -0.543 1.931 -2.048 1.39 -3.356 l -1.673 -4.039 c -0.262 -0.634 -0.756 -1.128 -1.39 -1.39 c -0.633 -0.262 -1.331 -0.263 -1.966 0 c -1.258 0.52 -2.151 -0.233 -2.394 -0.476 c -0.243 -0.243 -0.997 -1.136 -0.476 -2.394 c 0.542 -1.308 -0.081 -2.814 -1.39 -3.357 l -4.039 -1.673 c -0.317 -0.131 -0.65 -0.197 -0.983 -0.197 s -0.666 0.066 -0.983 0.197 c -0.634 0.263 -1.128 0.756 -1.39 1.39 c -0.521 1.259 -1.686 1.356 -2.03 1.356 c 0 0 0 0 0 0 c -0.344 0 -1.508 -0.098 -2.03 -1.357 c -0.543 -1.307 -2.048 -1.93 -3.356 -1.389 l -4.04 1.673 c -1.307 0.543 -1.931 2.048 -1.389 3.356 c 0.521 1.258 -0.233 2.151 -0.476 2.394 c -0.244 0.244 -1.134 0.998 -2.395 0.476 c -1.309 -0.54 -2.813 0.083 -3.356 1.391 l -1.673 4.039 c -0.541 1.308 0.082 2.814 1.39 3.356 l 0.001 0 c 1.258 0.521 1.356 1.685 1.356 2.03 c 0 0.345 -0.098 1.509 -1.356 2.03 c -0.634 0.262 -1.128 0.756 -1.39 1.39 c -0.263 0.634 -0.263 1.332 0 1.966 l 1.673 4.039 c 0.543 1.307 2.046 1.932 3.357 1.389 c 1.259 -0.522 2.151 0.233 2.394 0.476 c 0.244 0.244 0.998 1.136 0.476 2.395 c -0.262 0.634 -0.262 1.332 0 1.966 c 0.263 0.634 0.756 1.128 1.39 1.39 l 4.039 1.673 c 1.307 0.541 2.813 -0.082 3.356 -1.391 c 0.521 -1.258 1.685 -1.356 2.03 -1.356 c 0.345 0 1.509 0.098 2.03 1.356 c 0.262 0.634 0.756 1.128 1.39 1.391 c 0.634 0.263 1.332 0.263 1.966 0 l 4.038 -1.673 c 0.634 -0.262 1.128 -0.756 1.391 -1.39 c 0.263 -0.634 0.263 -1.332 0 -1.966 c -0.521 -1.258 0.233 -2.151 0.476 -2.394 c 0.243 -0.244 1.135 -0.998 2.394 -0.476 c 0.634 0.262 1.332 0.262 1.966 0 c 0.634 -0.263 1.128 -0.756 1.39 -1.39 l 1.673 -4.038 C 86.927 29.782 86.927 29.084 86.665 28.45 z M 67.95 32.726 c -4.244 0 -7.697 -3.453 -7.697 -7.697 c 0 -4.244 3.453 -7.696 7.697 -7.696 c 4.244 0 7.696 3.453 7.696 7.696 C 75.646 29.274 72.194 32.726 67.95 32.726 z" style="stroke: none; stroke-width: 1; stroke-dasharray: none; stroke-linecap: butt; stroke-linejoin: miter; stroke-miterlimit: 10; fill: rgb(0,0,0); fill-rule: nonzero; opacity: 1;" transform=" matrix(1 0 0 1 0 0) " stroke-linecap="round" />
	<path d="M 89.845 68.159 c -0.206 -0.499 -0.595 -0.886 -1.093 -1.093 c -0.989 -0.41 -1.066 -1.325 -1.066 -1.596 c 0 -0.271 0.077 -1.185 1.066 -1.595 c 1.028 -0.426 1.518 -1.61 1.092 -2.637 l -1.315 -3.174 c -0.206 -0.498 -0.594 -0.886 -1.093 -1.093 c -0.498 -0.206 -1.047 -0.206 -1.545 0 c -0.989 0.409 -1.69 -0.183 -1.882 -0.374 c -0.191 -0.191 -0.784 -0.893 -0.374 -1.882 c 0.426 -1.028 -0.064 -2.211 -1.093 -2.638 l -3.174 -1.315 c -0.249 -0.103 -0.511 -0.155 -0.772 -0.155 c -0.262 0 -0.523 0.052 -0.773 0.155 c -0.498 0.206 -0.887 0.594 -1.093 1.092 c -0.41 0.989 -1.325 1.066 -1.595 1.066 c 0 0 0 0 0 0 c -0.271 0 -1.185 -0.077 -1.595 -1.067 c -0.426 -1.028 -1.61 -1.517 -2.637 -1.092 l -3.175 1.315 c -1.028 0.426 -1.518 1.609 -1.092 2.638 c 0.41 0.989 -0.183 1.69 -0.374 1.882 c -0.192 0.192 -0.892 0.785 -1.882 0.374 c -1.029 -0.424 -2.211 0.065 -2.638 1.093 l -1.315 3.174 c -0.425 1.028 0.064 2.211 1.092 2.637 l 0.001 0 c 0.989 0.41 1.066 1.324 1.066 1.595 c 0 0.271 -0.077 1.186 -1.066 1.595 c -0.498 0.206 -0.886 0.594 -1.093 1.093 c -0.206 0.498 -0.206 1.047 0 1.545 l 1.315 3.175 c 0.426 1.027 1.608 1.519 2.638 1.092 c 0.99 -0.41 1.69 0.183 1.881 0.374 c 0.192 0.191 0.784 0.893 0.374 1.882 c -0.206 0.498 -0.206 1.047 0 1.545 c 0.206 0.498 0.594 0.886 1.092 1.093 l 3.174 1.315 c 1.028 0.425 2.211 -0.065 2.638 -1.093 c 0.41 -0.989 1.325 -1.066 1.595 -1.066 c 0.271 0 1.186 0.077 1.595 1.066 c 0.206 0.498 0.594 0.886 1.093 1.093 c 0.498 0.207 1.047 0.206 1.545 0 l 3.174 -1.315 c 0.498 -0.206 0.887 -0.594 1.093 -1.093 c 0.207 -0.498 0.206 -1.047 0 -1.545 c -0.41 -0.989 0.183 -1.69 0.374 -1.882 c 0.191 -0.192 0.892 -0.785 1.881 -0.374 c 0.498 0.206 1.047 0.206 1.545 0 c 0.498 -0.206 0.886 -0.595 1.093 -1.093 l 1.315 -3.174 C 90.052 69.206 90.052 68.657 89.845 68.159 z M 75.137 71.52 c -3.335 0 -6.049 -2.714 -6.049 -6.049 c 0 -3.335 2.714 -6.049 6.049 -6.049 s 6.049 2.714 6.049 6.049 C 81.186 68.806 78.472 71.52 75.137 71.52 z" style="stroke: none; stroke-width: 1; stroke-dasharray: none; stroke-linecap: butt; stroke-linejoin: miter; stroke-miterlimit: 10; fill: rgb(0,0,0); fill-rule: nonzero; opacity: 1;" transform=" matrix(1 0 0 1 0 0) " stroke-linecap="round" />
</g>
</svg>